<?xml version="1.0" encoding="utf-8"?>
<!-- Generator: Adobe Illustrator 22.0.1, SVG Export Plug-In . SVG Version: 6.00 Build 0)  -->
<svg version="1.1" id="Layer_1" xmlns="http://www.w3.org/2000/svg" xmlns:xlink="http://www.w3.org/1999/xlink" x="0px" y="0px"
	 viewBox="0 0 144 108" style="enable-background:new 0 0 144 108;" xml:space="preserve">
<style type="text/css">
	.st0{fill:#FFFFFF;stroke:#372D83;stroke-width:2.749;stroke-miterlimit:10;}
	.st1{fill:#372D83;}
</style>
<line class="st0" x1="10.7" y1="91.6" x2="10.7" y2="16.4"/>
<path class="st1" d="M131.1,31.6H12.9c-1.2,0-2.2-1-2.2-2.2v-7.6c0-1.2,1-2.2,2.2-2.2h118.2c1.2,0,2.2,1,2.2,2.2v7.6
	C133.2,30.6,132.3,31.6,131.1,31.6z"/>
<path class="st1" d="M87.8,50.6H12.5c-1,0-1.7-0.8-1.7-1.7v-8.4c0-1,0.8-1.7,1.7-1.7h75.3c1,0,1.7,0.8,1.7,1.7v8.4
	C89.5,49.9,88.8,50.6,87.8,50.6z"/>
<path class="st1" d="M64.4,69.7H12.2c-0.8,0-1.4-0.6-1.4-1.4v-9c0-0.8,0.6-1.4,1.4-1.4h52.2c0.8,0,1.4,0.6,1.4,1.4v9
	C65.8,69,65.2,69.7,64.4,69.7z"/>
<path class="st1" d="M109.6,88.7H12.7c-1.1,0-2-0.9-2-2v-8c0-1.1,0.9-2,2-2h96.9c1.1,0,2,0.9,2,2v8
	C111.5,87.8,110.7,88.7,109.6,88.7z"/>
</svg>
