<?xml version="1.0" encoding="utf-8"?>
<!-- Generator: Adobe Illustrator 22.0.1, SVG Export Plug-In . SVG Version: 6.00 Build 0)  -->
<svg version="1.1" id="Layer_1" xmlns="http://www.w3.org/2000/svg" xmlns:xlink="http://www.w3.org/1999/xlink" x="0px" y="0px"
	 viewBox="0 0 144 108" style="enable-background:new 0 0 144 108;" xml:space="preserve">
<style type="text/css">
	.st0{fill:#FFFFFF;stroke:#372D83;stroke-width:2.749;stroke-miterlimit:10;}
	.st1{fill:#372D83;}
	.st2{font-family:'Nunito-Bold';}
	.st3{font-size:17.4534px;}
	.st4{fill:none;stroke:#372D83;stroke-width:2.749;stroke-miterlimit:10;}
</style>
<rect x="10.7" y="16.4" class="st0" width="122.5" height="75.3"/>
<rect x="19.3" y="36" class="st0" width="54.4" height="35.9"/>
<text transform="matrix(0.8296 0 0 1 79.0803 59.9539)" class="st1 st2 st3">TODAY</text>
<rect x="19.3" y="36" class="st4" width="7.8" height="7.2"/>
<rect x="27" y="36" class="st4" width="7.8" height="7.2"/>
<rect x="34.8" y="36" class="st4" width="7.8" height="7.2"/>
<rect x="42.6" y="36" class="st4" width="7.8" height="7.2"/>
<rect x="50.3" y="36" class="st4" width="7.8" height="7.2"/>
<rect x="58.1" y="36" class="st4" width="7.8" height="7.2"/>
<rect x="65.9" y="36" class="st4" width="7.8" height="7.2"/>
<rect x="19.3" y="43.2" class="st4" width="7.8" height="7.2"/>
<rect x="27" y="43.2" class="st4" width="7.8" height="7.2"/>
<rect x="34.8" y="43.2" class="st4" width="7.8" height="7.2"/>
<rect x="42.6" y="43.2" class="st4" width="7.8" height="7.2"/>
<rect x="50.3" y="43.2" class="st4" width="7.8" height="7.2"/>
<rect x="58.1" y="43.2" class="st4" width="7.8" height="7.2"/>
<rect x="65.9" y="43.2" class="st4" width="7.8" height="7.2"/>
<rect x="19.3" y="50.4" class="st4" width="7.8" height="7.2"/>
<rect x="27" y="50.4" class="st4" width="7.8" height="7.2"/>
<rect x="34.8" y="50.4" class="st4" width="7.8" height="7.2"/>
<rect x="42.6" y="50.4" class="st4" width="7.8" height="7.2"/>
<rect x="50.3" y="50.4" class="st4" width="7.8" height="7.2"/>
<rect x="58.1" y="50.4" class="st4" width="7.8" height="7.2"/>
<rect x="65.9" y="50.4" class="st4" width="7.8" height="7.2"/>
<rect x="19.3" y="57.6" class="st4" width="7.8" height="7.2"/>
<rect x="27" y="57.6" class="st4" width="7.8" height="7.2"/>
<rect x="34.8" y="57.6" class="st4" width="7.8" height="7.2"/>
<rect x="42.6" y="57.6" class="st4" width="7.8" height="7.2"/>
<rect x="50.3" y="57.6" class="st4" width="7.8" height="7.2"/>
<rect x="58.1" y="57.6" class="st4" width="7.8" height="7.2"/>
<rect x="65.9" y="57.6" class="st4" width="7.8" height="7.2"/>
<rect x="19.3" y="64.8" class="st4" width="7.8" height="7.2"/>
<rect x="27" y="64.8" class="st4" width="7.8" height="7.2"/>
<rect x="34.8" y="64.8" class="st4" width="7.8" height="7.2"/>
<rect x="42.6" y="64.8" class="st4" width="7.8" height="7.2"/>
<rect x="50.3" y="64.8" class="st4" width="7.8" height="7.2"/>
<rect x="58.1" y="64.8" class="st4" width="7.8" height="7.2"/>
<rect x="65.9" y="64.8" class="st4" width="7.8" height="7.2"/>
</svg>
