<?xml version="1.0" encoding="utf-8"?>
<!-- Generator: Adobe Illustrator 22.0.1, SVG Export Plug-In . SVG Version: 6.00 Build 0)  -->
<svg version="1.1" id="Layer_1" xmlns="http://www.w3.org/2000/svg" xmlns:xlink="http://www.w3.org/1999/xlink" x="0px" y="0px"
	 viewBox="0 0 121.9 122.6" style="enable-background:new 0 0 121.9 122.6;" xml:space="preserve">
<style type="text/css">
	.st0{fill:none;stroke:#372D83;stroke-width:2.4009;stroke-miterlimit:10;}
	.st1{fill:#372D83;}
	.st2{fill:#FFFFFF;stroke:#372D83;stroke-width:2.857;stroke-miterlimit:10;}
</style>
<rect x="3.5" y="30.7" class="st0" width="114.9" height="76.5"/>
<rect x="3.5" y="30.7" class="st0" width="16.4" height="15.3"/>
<rect x="19.9" y="30.7" class="st0" width="16.4" height="15.3"/>
<rect x="19.9" y="15.5" class="st1" width="8.2" height="15.3"/>
<rect x="93.8" y="15.4" class="st1" width="8.2" height="15.3"/>
<rect x="36.3" y="30.7" class="st0" width="16.4" height="15.3"/>
<rect x="52.8" y="30.7" class="st0" width="16.4" height="15.3"/>
<rect x="69.2" y="30.7" class="st0" width="16.4" height="15.3"/>
<rect x="85.6" y="30.7" class="st0" width="16.4" height="15.3"/>
<rect x="102" y="30.7" class="st0" width="16.4" height="15.3"/>
<rect x="3.5" y="46" class="st0" width="16.4" height="15.3"/>
<rect x="19.9" y="46" class="st0" width="16.4" height="15.3"/>
<rect x="36.3" y="46" class="st0" width="16.4" height="15.3"/>
<rect x="52.8" y="46" class="st0" width="16.4" height="15.3"/>
<rect x="69.2" y="46" class="st0" width="16.4" height="15.3"/>
<rect x="85.6" y="46" class="st0" width="16.4" height="15.3"/>
<rect x="102" y="46" class="st0" width="16.4" height="15.3"/>
<rect x="3.5" y="61.3" class="st0" width="16.4" height="15.3"/>
<rect x="19.9" y="61.3" class="st0" width="16.4" height="15.3"/>
<rect x="36.3" y="61.3" class="st0" width="16.4" height="15.3"/>
<rect x="52.8" y="61.3" class="st0" width="16.4" height="15.3"/>
<rect x="69.2" y="61.3" class="st0" width="16.4" height="15.3"/>
<rect x="85.6" y="61.3" class="st0" width="16.4" height="15.3"/>
<rect x="102" y="61.3" class="st0" width="16.4" height="15.3"/>
<rect x="3.5" y="76.6" class="st0" width="16.4" height="15.3"/>
<rect x="19.9" y="76.6" class="st0" width="16.4" height="15.3"/>
<rect x="36.3" y="76.6" class="st0" width="16.4" height="15.3"/>
<rect x="52.8" y="76.6" class="st0" width="16.4" height="15.3"/>
<rect x="69.2" y="76.6" class="st0" width="16.4" height="15.3"/>
<rect x="85.6" y="76.6" class="st0" width="16.4" height="15.3"/>
<rect x="102" y="76.6" class="st0" width="16.4" height="15.3"/>
<rect x="3.5" y="91.9" class="st0" width="16.4" height="15.3"/>
<rect x="19.9" y="91.9" class="st0" width="16.4" height="15.3"/>
<rect x="36.3" y="91.9" class="st0" width="16.4" height="15.3"/>
<rect x="52.8" y="91.9" class="st0" width="16.4" height="15.3"/>
<rect x="69.2" y="91.9" class="st0" width="16.4" height="15.3"/>
<rect x="85.6" y="91.9" class="st0" width="16.4" height="15.3"/>
<rect x="102" y="91.9" class="st0" width="16.4" height="15.3"/>
<circle class="st2" cx="93.8" cy="91.9" r="22.1"/>
<polyline class="st2" points="93.8,78.5 93.8,91.9 102,91.9 "/>
</svg>
