<?xml version="1.0" encoding="utf-8"?>
<!-- Generator: Adobe Illustrator 22.0.1, SVG Export Plug-In . SVG Version: 6.00 Build 0)  -->
<svg version="1.1" id="Layer_1" xmlns="http://www.w3.org/2000/svg" xmlns:xlink="http://www.w3.org/1999/xlink" x="0px" y="0px"
	 viewBox="0 0 144 108" style="enable-background:new 0 0 144 108;" xml:space="preserve">
<style type="text/css">
	.st0{fill:#372D83;stroke:#372D83;stroke-width:2.5687;stroke-miterlimit:10;}
	.st1{fill:#FFFFFF;}
	.st2{fill:#FFFFFF;stroke:#372D83;stroke-width:2.5687;stroke-miterlimit:10;}
	.st3{fill:#372D83;stroke:#372D83;stroke-width:2.749;stroke-miterlimit:10;}
	.st4{fill:#FFFFFF;stroke:#372D83;stroke-width:2;stroke-miterlimit:10;}
	.st5{fill:#FFFFFF;stroke:#372D83;stroke-width:1.5;stroke-miterlimit:10;}
</style>
<rect x="17.7" y="16.4" class="st0" width="108.6" height="65.7"/>
<rect x="25.3" y="21" class="st1" width="93.3" height="56.5"/>
<path class="st2" d="M10.7,91.6"/>
<polygon class="st3" points="17.7,82.1 126.3,82.1 133.3,86.9 133.3,91.6 10.7,91.6 10.7,86.9 "/>
<g>
	<path class="st4" d="M60.1,35.6L56.7,32l0,0c3.6-3.3,8.8-4.7,13.9-3.4l-1.3,4.7"/>
	<path class="st4" d="M58.7,49.1l-3.9,2.9l0,0c-2.7-3.5-3.7-8.3-2.5-12.9l4.7,1.3"/>
	<path class="st4" d="M76.3,45.7l4.7,1.3c1.3-4.7,0.2-9.5-2.6-13l-4,2.9"/>
	<path class="st4" d="M73,50.8l3.1,3.8l0,0c-3.6,3-8.5,4.2-13.4,2.9l1.3-4.7"/>
	<circle class="st4" cx="66.7" cy="43.1" r="10"/>
	<circle class="st4" cx="66.7" cy="43.1" r="4.7"/>
</g>
<g>
	<path class="st4" d="M86.4,49.5l-1.7-3.7l0,0c3.7-1.6,8.2-1.3,11.8,1.2l-2.3,3.4"/>
	<path class="st4" d="M81.7,59.8L77.8,61l0,0c-1.1-3.5-0.7-7.5,1.6-10.8l3.4,2.3"/>
	<path class="st4" d="M96.4,61.9l3.4,2.3c2.3-3.3,2.7-7.4,1.5-10.9l-3.9,1.2"/>
	<path class="st4" d="M92.5,64.9l1.4,3.8l0,0c-3.6,1.3-7.8,1-11.3-1.4l2.3-3.4"/>
	<circle class="st4" cx="89.6" cy="57.2" r="8.3"/>
	<circle class="st4" cx="89.6" cy="57.2" r="3.9"/>
</g>
<g>
	<path class="st5" d="M46.1,54.6l-2-1.7l0,0c1.7-2,4.4-3.1,7.2-2.7l-0.4,2.6"/>
	<path class="st5" d="M46.2,61.9l-1.9,1.8l0,0c-1.7-1.7-2.5-4.1-2.2-6.7l2.6,0.4"/>
	<path class="st5" d="M55.4,58.9l2.6,0.4c0.4-2.6-0.5-5-2.2-6.8l-1.9,1.8"/>
	<path class="st5" d="M53.9,61.8l1.9,1.8l0,0c-1.7,1.8-4.3,2.8-6.9,2.4l0.4-2.6"/>
	<circle class="st5" cx="50.1" cy="58.1" r="5.3"/>
	<circle class="st5" cx="50.1" cy="58.1" r="2.5"/>
</g>
</svg>
