<?xml version="1.0" encoding="utf-8"?>
<!-- Generator: Adobe Illustrator 22.0.1, SVG Export Plug-In . SVG Version: 6.00 Build 0)  -->
<svg version="1.1" id="Layer_1" xmlns="http://www.w3.org/2000/svg" xmlns:xlink="http://www.w3.org/1999/xlink" x="0px" y="0px"
	 viewBox="0 0 123.8 167.7" style="enable-background:new 0 0 123.8 167.7;" xml:space="preserve">
<style type="text/css">
	.st0{fill:#FFFFFF;}
	.st1{fill:#372D83;}
	.st2{fill:#43469D;}
	.st3{fill:#3C2A7C;}
</style>
<g>
	<path class="st0" d="M101.2,70.5C84.9,54.9,87,41.6,103,34c-23.7-8-49.4,23.8-41.3,51.2c-16.1,7.7-87.4,45.4-11.6,82.3
		c0,0-17.8-15.1-17.8-27.8c0-16.9,13.7-30.5,30.5-30.5c16.9,0,27.8,13.9,27.8,30.7c-0.7,17.7-15.8,27.8-15.8,27.8
		C120.3,166.3,144.2,111.6,101.2,70.5z"/>
	<path class="st1" d="M51.1,167.7c0,0-39.8-27.2,3.3-66.2C98.6,61.5,86.9,18.4,62,0c1.6,27.1,1.6,43-37.4,70.5
		C-23.1,104.1,5.5,166.3,51.1,167.7z"/>
	<path class="st2" d="M55.5,83.9c-45.2,31.4-43.7,60.2-4.4,83.8c-8.3-7.3-32.5-33.8,3.3-66.3c16.2-14.7,24.9-29.8,28.2-43.9
		C80.3,64.3,72.3,72.2,55.5,83.9z"/>
	<path class="st3" d="M29.6,66.9c-1.6,1.2-3.2,2.4-4.9,3.6c-47.7,33.6-19.1,95.8,26.4,97.2c0,0-1.5-1-3.6-3
		C-15,112.1,18,76.6,29.6,66.9z"/>
</g>
</svg>
