<?xml version="1.0" encoding="utf-8"?>
<!-- Generator: Adobe Illustrator 22.0.1, SVG Export Plug-In . SVG Version: 6.00 Build 0)  -->
<svg version="1.1" id="Layer_1" xmlns="http://www.w3.org/2000/svg" xmlns:xlink="http://www.w3.org/1999/xlink" x="0px" y="0px"
	 viewBox="0 0 121.9 122.6" style="enable-background:new 0 0 121.9 122.6;" xml:space="preserve">
<style type="text/css">
	.st0{fill:none;stroke:#372D83;stroke-width:2.0374;stroke-miterlimit:10;}
	.st1{fill:#FFFFFF;stroke:#372D83;stroke-width:2.2228;stroke-miterlimit:10;}
	.st2{fill:none;stroke:#372D83;stroke-width:2.2228;stroke-miterlimit:10;}
</style>
<polygon class="st0" points="87.2,36.6 87.2,107.3 22.4,107.3 22.4,15.5 69.2,15.5 87.2,15.5 "/>
<path class="st1" d="M76.5,54c-6.2,5.7-12.9,3-12.9,3c4.5-2.3,5.6-7.9,5.6-7.9c-2.5-2.6-4-5.8-4-9.2c0-9,10.2-16.2,22.7-16.2
	S110.7,31,110.7,40S100.5,56.2,88,56.2C83.8,56.2,79.9,55.4,76.5,54z"/>
<line class="st2" x1="33.5" y1="29.3" x2="70.8" y2="29.3"/>
<line class="st2" x1="33.5" y1="45.1" x2="66.4" y2="45.1"/>
<line class="st2" x1="32.9" y1="60.8" x2="76.1" y2="60.8"/>
<line class="st2" x1="33.2" y1="76.6" x2="76.4" y2="76.6"/>
<line class="st2" x1="33.2" y1="92.3" x2="76.4" y2="92.3"/>
</svg>
